<?xml version="1.0" encoding="utf-8"?>
<svg version="1.0" width="200.000000pt" height="200.000000pt" viewBox="0 0 200.000000 200.000000" preserveAspectRatio="xMidYMid meet" xmlns="http://www.w3.org/2000/svg">
  <g transform="translate(0.000000,200.000000) scale(0.100000,-0.100000)" fill="#000000" stroke="none">
    <path d="M175 1860 c-112 -343 -142 -588 -85 -699 11 -23 32 -47 45 -53 23 -10 24 -12 8 -42 -9 -17 -43 -73 -76 -124 -47 -73 -60 -101 -60 -132 0 -91 113 -259 289 -430 124 -120 204 -184 317 -252 77 -46 221 -108 252 -108 13 0 15 53 13 478 l-3 477 -93 5 c-87 5 -95 7 -118 33 -24 28 -24 30 -24 247 l0 219 -56 93 c-135 223 -247 364 -322 406 l-41 23 -46 -141z" style="fill: rgb(205, 205, 205);"/>
    <path d="M1713 1960 c-68 -50 -161 -173 -292 -385 l-61 -99 0 -223 0 -224 -25 -24 c-21 -22 -33 -25 -100 -25 l-75 0 0 -476 0 -476 28 6 c61 15 233 110 332 184 126 95 328 300 391 397 62 95 92 170 85 209 -4 16 -25 60 -48 96 -23 36 -56 89 -75 119 l-33 54 28 18 c109 66 92 352 -45 759 -24 71 -44 116 -53 118 -9 1 -34 -11 -57 -28z" style="fill: rgb(205, 205, 205);"/>
    <path d="M930 1346 c0 -231 -2 -226 99 -226 105 0 102 -8 99 220 l-3 195 -97 3 -98 3 0 -195z" style="fill: rgb(205, 205, 205);"/>
  </g>
</svg>